<svg width="35" height="35" viewBox="0 0 35 35" xmlns="http://www.w3.org/2000/svg"><title>E11FE903-60FC-4E6C-8BE3-8042F65AD3C9</title><path d="M0 1.82A1.82 1.82 0 0 1 1.82 0h31.36A1.82 1.82 0 0 1 35 1.82v31.36A1.82 1.82 0 0 1 33.18 35H1.82A1.82 1.82 0 0 1 0 33.18V1.82zm6.449 23.517a14.789 14.789 0 0 0 7.881 2.256c8.142 0 14.742-6.528 14.742-14.579 0-.2-.004-.4-.012-.6.295-.228 2.116-1.672 2.563-2.6 0 0-1.48.608-2.927.75l-.01.001.008-.004c.134-.089 1.999-1.344 2.251-2.84 0 0-1.046.552-2.51 1.035-.243.08-.497.159-.759.231A5.185 5.185 0 0 0 23.9 7.368c-2.858 0-5.173 2.29-5.173 5.114 0 .398.046.786.134 1.158-.4-.016-6.48-.353-10.618-5.307 0 0-2.472 3.338 1.474 6.77 0 0-1.2-.047-2.234-.659 0 0-.38 4.044 4.088 5.078 0 0-.88.33-2.282.095 0 0 .784 3.267 4.755 3.572 0 0-3.14 2.805-7.597 2.147h.002z" fill="#FFF" fill-rule="evenodd"/></svg>